# xmcd
#
# Track frame offsets:
#	150
#	16523
#	19094
#
# Disc length: 287 seconds
#
# Revision: 1
# Processed by: cddbd v1.5.1PL0 Copyright (c) Steve Scherf et al.
# Submitted via: audiograbber 1.83.01
#
DISCID=11011d03
DTITLE=Joss Stone - The Chokin' KInd
DYEAR=2003
DGENRE=Soul
TTITLE0=The Chokin' Kind
TTITLE1=Super Duper Love
TTITLE2=I've Fallen In Love With You
EXTD=
EXTT0=
EXTT1=
EXTT2=
PLAYORDER=
